<svg xmlns="http://www.w3.org/2000/svg" width="400" height="99" viewBox="0 0 400 99" version="1.1"><path d="M 191.269 28.693 C 192.242 28.947, 193.592 28.930, 194.269 28.656 C 194.946 28.382, 194.150 28.175, 192.500 28.195 C 190.850 28.215, 190.296 28.439, 191.269 28.693 M 195.132 33.750 C 195.007 37.767, 195.151 37.996, 197.750 37.930 C 200.130 37.869, 200.231 37.755, 198.500 37.083 C 197.266 36.604, 196.263 35.003, 195.882 32.903 C 195.271 29.543, 195.262 29.554, 195.132 33.750 M 157.571 34.571 C 155.501 36.642, 155.577 39.435, 157.750 41.079 C 159.239 42.206, 159.313 42.194, 158.250 41.002 C 156.356 38.878, 156.747 36.291, 159.223 34.557 C 160.445 33.701, 160.927 33, 160.294 33 C 159.661 33, 158.436 33.707, 157.571 34.571 M 168.273 35 C 169.671 36.100, 171.152 37, 171.563 37 C 171.974 37, 171.495 36.100, 170.500 35 C 169.505 33.900, 168.024 33, 167.210 33 C 166.258 33, 166.637 33.713, 168.273 35 M 188 35.427 C 188 36.211, 187.213 37.059, 186.250 37.311 C 184.933 37.655, 185.057 37.797, 186.750 37.884 C 188.372 37.968, 189 37.442, 189 36 C 189 34.900, 188.775 34, 188.500 34 C 188.225 34, 188 34.642, 188 35.427 M 185.689 43.698 C 186.952 43.943, 188.057 45.048, 188.302 46.311 C 188.652 48.113, 188.752 48.014, 188.864 45.750 C 188.982 43.354, 188.646 43.018, 186.250 43.136 C 183.986 43.248, 183.887 43.348, 185.689 43.698 M 195.168 47.250 L 195.336 51.500 195.725 47.812 C 196.024 44.973, 196.618 44.026, 198.307 43.698 C 200.118 43.346, 200.021 43.249, 197.750 43.136 C 195.136 43.007, 195.008 43.210, 195.168 47.250 M 161.500 50 C 162.600 50.473, 164.452 50.891, 165.615 50.930 C 166.778 50.968, 168.964 51.970, 170.471 53.156 C 173.179 55.286, 173.196 55.287, 171.908 53.225 C 171.184 52.064, 168.721 50.663, 166.360 50.069 C 161.369 48.812, 158.646 48.774, 161.500 50 M 155.968 57.727 C 156.561 58.952, 158.048 60.439, 159.273 61.032 C 161.344 62.035, 161.372 62.007, 159.669 60.636 C 158.662 59.825, 157.175 58.338, 156.364 57.331 C 154.993 55.628, 154.965 55.656, 155.968 57.727 M 195.030 56.316 C 194.970 57.944, 197.100 61, 198.285 60.985 C 199.122 60.974, 199.162 60.741, 198.415 60.235 C 197.818 59.831, 196.819 58.600, 196.195 57.500 C 195.571 56.400, 195.047 55.867, 195.030 56.316 M 190.924 64.250 C 192.497 66.034, 194.254 66.952, 195.924 66.864 L 198.500 66.728 196 66.276 C 194.625 66.028, 192.375 64.852, 191 63.662 L 188.500 61.500 190.924 64.250 M 156.052 67.053 C 157.388 67.899, 164.855 68.453, 163.917 67.638 C 163.688 67.438, 161.498 67.019, 159.052 66.706 C 156.174 66.338, 155.115 66.461, 156.052 67.053 M 166.269 67.693 C 167.242 67.947, 168.592 67.930, 169.269 67.656 C 169.946 67.382, 169.150 67.175, 167.500 67.195 C 165.850 67.215, 165.296 67.439, 166.269 67.693" stroke="none" fill="#f4f4f4" fill-rule="evenodd"/><path d="M 45 6.752 C 38.119 10.189, 37.928 11.372, 38.231 48.732 L 38.500 81.964 41.634 85.096 C 44.325 87.786, 45.595 88.270, 50.634 88.522 L 56.500 88.815 74.272 71.156 C 99.097 46.491, 99.058 47.782, 75.673 24.171 C 66.778 15.190, 58.285 7.203, 56.800 6.421 C 53.190 4.521, 49.243 4.632, 45 6.752 M 114.635 7.073 C 112.578 8.690, 112 10.017, 112 13.118 C 112 18.287, 115.290 21.800, 120.131 21.800 C 126.019 21.800, 129.657 17.316, 128.552 11.423 C 127.393 5.250, 119.922 2.914, 114.635 7.073 M 78.347 7.930 C 74.010 9.899, 72.426 12.576, 73.370 16.338 C 73.673 17.545, 79.185 23.700, 85.619 30.016 C 97.130 41.315, 97.325 41.583, 97.774 46.640 L 98.229 51.781 85.620 65.140 C 78.684 72.488, 73.008 79.309, 73.005 80.298 C 72.998 82.903, 77.852 87, 80.946 87 C 82.406 87, 84.097 87.497, 84.704 88.104 C 85.401 88.801, 87.350 88.948, 89.989 88.502 C 93.714 87.872, 96.007 85.975, 110.999 71.117 C 135.002 47.327, 134.990 47.803, 112.138 24.671 C 103.537 15.964, 95.285 8.202, 93.800 7.421 C 90.067 5.457, 83.301 5.680, 78.347 7.930 M 158.014 26.984 C 152.973 28.227, 149 33.065, 149 37.960 C 149 44.232, 151.954 46.778, 161.919 49.099 C 170.794 51.165, 172.960 52.757, 172.213 56.666 C 171.626 59.736, 169.504 60.830, 163.534 61.139 C 159.557 61.345, 158.413 60.993, 156.871 59.090 C 155.848 57.826, 155.215 56.462, 155.464 56.058 C 155.713 55.655, 154.136 55.255, 151.959 55.170 C 148.422 55.031, 148 55.266, 148 57.372 C 148 60.690, 151.424 64.655, 155.432 65.978 C 161.009 67.818, 172.452 67.589, 175.524 65.576 C 182.038 61.308, 182.173 50.900, 175.766 47.004 C 174.048 45.959, 172.272 45.332, 171.821 45.611 C 171.369 45.890, 171 45.611, 171 44.992 C 171 44.320, 170.192 44.122, 169 44.500 C 167.838 44.869, 167 44.680, 167 44.048 C 167 43.389, 166.018 43.208, 164.500 43.589 C 162.903 43.990, 162 43.795, 162 43.049 C 162 42.407, 161.623 42.115, 161.163 42.399 C 159.846 43.213, 155.998 40.070, 156.015 38.193 C 156.046 34.836, 157.727 33.732, 163.142 33.516 C 168.637 33.297, 172.317 35.010, 171.413 37.367 C 171.112 38.150, 172.294 38.545, 174.934 38.545 C 178.724 38.545, 178.892 38.412, 178.573 35.664 C 178.174 32.244, 174.151 27.909, 170.851 27.346 C 164.686 26.293, 161.215 26.195, 158.014 26.984 M 328 46.500 L 328 67 332 67 L 336 67 336 62.655 C 336 59.613, 336.586 57.779, 337.955 56.540 C 339.854 54.822, 339.991 54.907, 342.705 59.476 C 347.316 67.239, 347.223 67.163, 351.730 66.818 L 355.887 66.500 350.856 57.823 L 345.825 49.146 349.913 43.732 C 352.161 40.754, 354 38.022, 354 37.659 C 354 37.297, 352.053 37, 349.673 37 C 345.526 37, 345.164 37.253, 340.923 43.110 L 336.500 49.221 336.218 37.610 L 335.937 26 331.968 26 L 328 26 328 46.500 M 188.448 33.318 L 189.101 38.242 185.750 37.613 C 182.482 37, 182.400 37.068, 182.400 40.397 C 182.400 43.663, 182.535 43.787, 185.535 43.301 L 188.670 42.792 188.585 51.807 C 188.507 60.032, 188.713 61.050, 190.924 63.411 C 192.258 64.835, 194.358 66, 195.591 66 C 196.824 66, 197.983 66.394, 198.167 66.876 C 198.350 67.358, 199.963 67.532, 201.750 67.263 C 204.553 66.840, 205 66.376, 205 63.887 C 205 61.193, 204.737 61, 201.059 61 C 198.891 61, 196.819 60.516, 196.453 59.924 C 196.087 59.331, 195.594 55.237, 195.359 50.825 L 194.930 42.803 199.965 43.495 L 205 44.188 205 40.500 L 205 36.812 199.862 37.519 L 194.724 38.226 195.188 33.363 L 195.652 28.500 191.724 28.448 L 187.795 28.395 188.448 33.318 M 272.807 32.250 C 272.518 36.256, 272.310 36.518, 269.192 36.818 C 266.130 37.112, 265.906 37.372, 266.192 40.318 C 266.467 43.161, 266.838 43.499, 269.668 43.495 C 271.411 43.493, 272.820 43.718, 272.800 43.995 C 272.780 44.273, 272.816 48.458, 272.882 53.295 C 272.988 61.217, 273.244 62.335, 275.455 64.545 C 277.470 66.561, 278.900 67, 283.455 67 C 288.949 67, 289 66.973, 289 64 C 289 61.346, 288.660 61, 286.057 61 C 281.719 61, 280 57.883, 280 50.020 L 280 43.486 284.500 43.843 L 289 44.201 289 40.658 C 289 37.205, 288.892 37.107, 284.750 36.807 C 280.521 36.501, 280.499 36.479, 280.193 32.250 C 279.896 28.148, 279.767 28, 276.500 28 C 273.233 28, 273.104 28.148, 272.807 32.250 M 238.241 37.995 C 233.424 40.932, 231.008 45.539, 231.004 51.800 C 230.999 57.941, 232.673 61.705, 237.041 65.381 C 240.803 68.546, 248.123 69.003, 251.965 66.312 C 253.674 65.115, 254.490 64.970, 254.771 65.812 C 254.988 66.465, 256.929 67, 259.083 67 L 263 67 263 52 L 263 37 259 37 C 256.129 37, 255 37.419, 255 38.485 C 255 39.697, 254.402 39.606, 251.750 37.989 C 247.603 35.461, 242.393 35.463, 238.241 37.995 M 302.001 37.123 C 290.239 41.814, 288.482 58.571, 298.999 65.750 C 302.916 68.423, 310.567 68.792, 314.961 66.520 C 318.182 64.854, 322 60.431, 322 58.365 C 322 56.096, 314.652 56.622, 312.456 59.049 C 309.598 62.207, 304.390 61.348, 301.197 57.192 C 299.799 55.373, 299.070 53.964, 299.577 54.061 C 300.085 54.158, 305.563 54.184, 311.750 54.118 L 323 54 323 51.316 C 323 49.839, 322.053 46.674, 320.895 44.282 C 317.569 37.412, 309.214 34.247, 302.001 37.123 M 210 52.060 L 210 67.121 213.750 66.810 L 217.500 66.500 218 57.274 C 218.570 46.766, 220.026 44, 224.990 44 C 227.763 44, 228 43.725, 228 40.500 C 228 37.211, 227.804 37.002, 224.750 37.032 C 221.362 37.065, 218 38.942, 218 40.801 C 218 41.396, 217.557 42.156, 217.015 42.491 C 216.404 42.868, 216.262 41.941, 216.640 40.050 C 217.230 37.099, 217.133 37, 213.625 37 L 210 37 210 52.060 M 242.856 44.493 C 237.713 47.332, 237.105 55.364, 241.756 59.023 C 245.332 61.835, 248.659 61.495, 252.200 57.954 C 254.823 55.331, 255.164 54.400, 254.655 51.263 C 253.620 44.886, 247.993 41.657, 242.856 44.493 M 303.223 44.557 C 299.560 47.122, 300.651 48, 307.500 48 C 314.322 48, 315.185 47.382, 312.171 44.655 C 309.873 42.575, 306.111 42.534, 303.223 44.557" stroke="none" fill="#fcfcfc" fill-rule="evenodd"/></svg>