<svg xmlns="http://www.w3.org/2000/svg" width="500" height="500" viewBox="0 0 500 500" version="1.1"><path d="M 232.206 49.973 C 227.256 52.121, 227 54.616, 227.004 100.718 C 227.007 141.604, 227.095 143.644, 228.989 146.750 L 230.971 150 308.446 150 L 385.922 150 387.961 147.811 C 390.270 145.333, 390.529 141.464, 388.987 132.434 C 385.128 109.819, 374.723 90.325, 358.327 74.987 C 342.906 60.562, 328.807 54.816, 300.871 51.574 C 285.224 49.758, 235.380 48.596, 232.206 49.973 M 128.655 51.829 C 127.165 53.475, 127 58.293, 127 100.174 C 127 143.968, 127.107 146.787, 128.829 148.345 C 130.473 149.833, 135.161 150, 175.272 150 L 219.887 150 221.443 147.777 C 222.797 145.845, 223 139.612, 223 100 C 223 60.388, 222.797 54.155, 221.443 52.223 L 219.887 50 175.098 50 C 132.978 50, 130.211 50.109, 128.655 51.829 M 280.072 65.086 C 276.743 65.799, 273.067 69.254, 273.022 71.711 C 273.010 72.378, 271.271 73.388, 269.159 73.957 C 263.215 75.558, 259 81.728, 259 88.828 C 259 90.988, 258.381 93.269, 257.625 93.896 C 255.649 95.536, 254.903 101.843, 256.134 106.500 C 256.716 108.700, 257.261 113.347, 257.346 116.827 C 257.491 122.773, 257.725 123.360, 261.235 126.577 C 263.290 128.460, 265.765 130.010, 266.735 130.023 C 267.717 130.035, 269.202 131.478, 270.082 133.273 C 274.663 142.618, 289.517 143.877, 292.829 135.201 C 294.356 131.202, 295.436 78.331, 294.092 73.343 C 292.312 66.730, 287 63.602, 280.072 65.086 M 301.923 66.923 C 299.212 69.634, 299 70.391, 299 77.341 C 299 85.101, 299.573 88, 301.107 88 C 301.598 88, 302 84.145, 302 79.434 C 302 69.638, 302.977 67, 306.607 67 C 312.329 67, 313.677 73.823, 308.426 76.215 C 306.170 77.244, 305.939 77.865, 306.204 82.195 C 306.564 88.072, 308.376 89.016, 308.822 83.559 C 309.013 81.216, 310.128 78.448, 311.572 76.732 C 313.941 73.916, 314.709 69.608, 313.235 67.400 C 312.225 65.888, 308.479 64, 306.489 64 C 305.585 64, 303.531 65.315, 301.923 66.923 M 278 69 C 276.655 70.345, 276 72.333, 276 75.071 C 276 79.210, 277.106 81.084, 280.250 82.275 C 282.769 83.228, 282.408 85.198, 279.784 84.820 C 277.825 84.537, 273.811 79.934, 272.751 76.754 C 272.103 74.808, 266.073 77.959, 264.453 81.091 C 262.836 84.217, 262.531 88.592, 263.872 89.421 C 264.352 89.718, 266.167 88.602, 267.904 86.941 C 271.509 83.496, 274.357 83.927, 271.075 87.420 C 269.934 88.635, 269 90.162, 269 90.814 C 269 91.467, 267.840 92, 266.423 92 C 264.884 92, 262.618 93.228, 260.798 95.048 C 258.048 97.798, 257.802 98.552, 258.277 102.765 C 258.661 106.172, 259.521 108.051, 261.457 109.717 C 264.832 112.620, 266.151 112.585, 269.818 109.500 C 273.103 106.735, 274 106.442, 274 108.133 C 274 110.864, 269.190 113.527, 263 114.220 C 260.757 114.472, 260.525 114.904, 260.740 118.426 C 261.100 124.294, 264.126 127, 270.329 127 C 275.228 127, 275.281 127.032, 273.520 128.978 C 271.790 130.889, 271.817 131.072, 274.312 134.343 C 280.567 142.543, 293.469 138.461, 292.777 128.500 C 292.557 125.326, 292.139 124.561, 290.750 124.794 C 288.407 125.187, 288.544 123.536, 291.146 120.016 C 292.939 117.592, 293.191 116.264, 292.681 111.954 C 292.021 106.386, 291.443 105.662, 283.134 99.994 C 278.644 96.932, 274.335 91.331, 275.542 90.125 C 275.772 89.894, 277.432 91.244, 279.230 93.123 C 282.243 96.272, 289.965 101, 292.095 101 C 292.593 101, 293 99.451, 293 97.557 C 293 93.706, 290.201 91, 286.218 91 C 284.915 91, 284.155 90.558, 284.500 90 C 284.840 89.450, 286.950 89, 289.190 89 L 293.262 89 292.677 85.394 C 291.854 80.326, 289.408 77.032, 285.955 76.341 C 284.330 76.016, 283 75.383, 283 74.934 C 283 73.126, 284.871 73.183, 288.447 75.100 C 292.745 77.403, 293.500 77.127, 292.608 73.574 C 291.058 67.399, 282.333 64.667, 278 69 M 140 94.726 L 140 119.737 147.250 120.222 C 152.512 120.574, 156.394 121.572, 161.408 123.862 C 165.207 125.598, 168.052 127.281, 167.729 127.604 C 167.259 128.074, 142.074 128.483, 137.267 128.099 C 136.330 128.024, 135.965 121.675, 135.749 101.750 L 135.465 75.500 135.233 103.250 L 135 131 156.250 130.997 C 167.938 130.995, 185.262 130.699, 194.750 130.340 L 212 129.685 211.774 101.593 L 211.548 73.500 211.024 101 L 210.500 128.500 194.583 128.500 C 184.238 128.500, 178.543 128.128, 178.313 127.438 C 177.973 126.420, 183.155 123.421, 189.500 120.964 C 191.150 120.325, 195.650 119.509, 199.500 119.151 L 206.500 118.500 206.768 94.250 L 207.036 70 204.654 70 C 196.279 70, 182.518 75.324, 176.714 80.810 C 174.733 82.682, 173.547 83.163, 172.613 82.472 C 171.890 81.937, 169.384 80.052, 167.044 78.282 C 161.652 74.204, 153.449 71.121, 145.891 70.331 L 140 69.715 140 94.726 M 142 94.519 C 142 106.884, 142.113 117.016, 142.250 117.035 C 150.326 118.162, 158.975 120.474, 164.162 122.893 C 167.826 124.602, 171.088 126, 171.412 126 C 171.735 126, 172 116.588, 172 105.085 L 172 84.170 167.080 80.559 C 161.686 76.599, 154.110 73.661, 146.750 72.675 L 142 72.038 142 94.519 M 196.650 73.039 C 191.059 73.989, 182.290 78.044, 177.974 81.675 L 175 84.178 175 105.089 C 175 116.590, 175.346 126, 175.768 126 C 176.190 126, 178.115 124.927, 180.045 123.615 C 184.514 120.579, 191.913 118.064, 198.973 117.182 L 204.500 116.492 204.500 94.509 C 204.500 69.890, 205.125 71.599, 196.650 73.039 M 317.250 77.990 C 313.970 80.909, 313 82.482, 313 84.886 C 313 88.630, 314.531 89.003, 315.417 85.475 C 315.766 84.086, 317.633 81.199, 319.566 79.059 C 324.209 73.919, 322.638 73.194, 317.250 77.990 M 325.500 83 C 323.919 84.650, 322.035 86, 321.313 86 C 319.483 86, 319.667 87.935, 321.566 88.664 C 323.303 89.330, 330 83.486, 330 81.304 C 330 79.237, 328.599 79.766, 325.500 83 M 150 83.250 C 157.171 86.446, 160.188 87.953, 163.432 89.958 C 165.394 91.171, 166.999 91.789, 166.998 91.332 C 166.996 90.261, 159.629 85.654, 154.628 83.594 C 150.218 81.778, 145.994 81.464, 150 83.250 M 187.500 85.106 C 184.200 86.790, 180.600 89.099, 179.500 90.235 C 177.554 92.247, 177.597 92.244, 181.129 90.144 C 183.125 88.958, 187.625 86.660, 191.129 85.039 C 194.633 83.418, 196.600 82.081, 195.500 82.067 C 194.400 82.053, 190.800 83.421, 187.500 85.106 M 194 89.868 C 186.631 92.773, 181.621 95.324, 179.561 97.217 C 176.812 99.746, 177.427 99.534, 187.455 94.498 C 192.381 92.024, 196.993 90, 197.705 90 C 198.417 90, 199 89.550, 199 89 C 199 87.794, 199.462 87.714, 194 89.868 M 148 89.939 C 149.375 90.362, 153.875 92.457, 158 94.595 C 167.577 99.560, 167 99.331, 167 98.169 C 167 96.712, 150.774 88.985, 147.925 89.086 L 145.500 89.172 148 89.939 M 299 101 L 299 110.078 307.750 109.789 L 316.500 109.500 316.500 101 L 316.500 92.500 307.750 92.211 L 299 91.922 299 101 M 320 94.500 C 320 95.633, 321.222 96, 325 96 C 328.778 96, 330 95.633, 330 94.500 C 330 93.367, 328.778 93, 325 93 C 321.222 93, 320 93.367, 320 94.500 M 152.180 99.384 C 155.304 100.669, 159.492 102.683, 161.487 103.860 C 166.098 106.580, 168.487 106.655, 164.500 103.955 C 159.850 100.805, 151.181 96.997, 148.720 97.024 C 147.379 97.038, 148.747 97.972, 152.180 99.384 M 185.750 101.155 C 181.488 103.358, 178 105.611, 178 106.162 C 178 106.712, 179.602 106.173, 181.560 104.963 C 183.518 103.753, 188.130 101.478, 191.810 99.908 C 196.150 98.057, 197.622 97.071, 196 97.102 C 194.625 97.129, 190.012 98.953, 185.750 101.155 M 333.500 99 C 332.083 100.565, 330.420 101, 325.845 101 C 322.615 101, 320 101.447, 320 102 C 320 102.562, 322.798 103, 326.393 103 C 331.153 103, 332.933 103.383, 333.362 104.500 C 334.331 107.026, 339.859 106.404, 341.124 103.626 C 343.541 98.323, 337.454 94.630, 333.500 99 M 266.750 100.370 C 265.788 101.113, 265 102.180, 265 102.742 C 265 104.005, 271.369 101.977, 272.043 100.500 C 272.749 98.954, 268.714 98.855, 266.750 100.370 M 335.190 101.750 C 335.376 102.713, 336.190 103.500, 337 103.500 C 337.810 103.500, 338.624 102.713, 338.810 101.750 C 339.046 100.522, 338.506 100, 337 100 C 335.494 100, 334.954 100.522, 335.190 101.750 M 280 104.608 C 280 105.990, 284.547 115, 285.244 115 C 286.586 115, 286.051 112.020, 283.980 107.960 C 282.245 104.560, 280 102.669, 280 104.608 M 150 106.614 C 152.475 107.450, 156.969 109.341, 159.988 110.817 C 167.308 114.396, 167 114.288, 167 113.269 C 167 111.576, 151.313 104.958, 147.514 105.048 C 146.406 105.074, 147.525 105.779, 150 106.614 M 188.660 107.623 C 182.592 110.168, 177.679 113.012, 178.292 113.626 C 178.487 113.821, 180.930 112.842, 183.721 111.452 C 186.512 110.061, 191.204 108.056, 194.148 106.998 C 197.570 105.767, 198.598 105.091, 197 105.123 C 195.625 105.151, 191.872 106.276, 188.660 107.623 M 320 108.445 C 320 109.648, 321.152 110, 325.083 110 C 331.691 110, 331.344 107.630, 324.672 107.195 C 320.982 106.954, 320 107.217, 320 108.445 M 299 124.050 C 299 135.448, 300.344 139.367, 304.619 140.440 C 308.185 141.336, 312.471 139.457, 313.870 136.385 C 315.593 132.605, 315.265 131.112, 312 127.846 C 309.404 125.250, 309 124.115, 309 119.423 C 309 115.269, 308.649 114, 307.500 114 C 306.321 114, 306 115.386, 306 120.474 C 306 126.657, 306.135 127.019, 309 128.500 C 314.045 131.109, 312.429 138, 306.771 138 C 302.610 138, 302 136.314, 302 124.800 C 302 115.867, 301.741 114, 300.500 114 C 299.266 114, 299 115.783, 299 124.050 M 313 117.292 C 313 119.848, 313.958 121.524, 317.288 124.792 C 323.833 131.215, 325.451 130.250, 319.473 123.489 C 317.533 121.295, 315.676 118.263, 315.348 116.750 C 314.521 112.946, 313 113.297, 313 117.292 M 320 115.500 C 320 116.325, 320.591 117, 321.313 117 C 322.035 117, 323.919 118.350, 325.500 120 C 327.081 121.650, 328.740 123, 329.187 123 C 331.003 123, 329.806 120.205, 326.702 117.196 C 323.211 113.812, 320 112.999, 320 115.500 M 268.964 119.036 C 266.111 121.889, 267.536 123.510, 270.705 121.018 C 274.233 118.242, 275.665 118.465, 279.600 122.400 C 282.377 125.177, 283 126.562, 283 129.959 C 283 132.477, 283.395 133.874, 284 133.500 C 285.686 132.458, 285.098 125.669, 283.054 122.567 C 279.372 116.983, 272.692 115.308, 268.964 119.036 M 128.655 156.829 C 127.164 158.477, 127 163.370, 127 206.272 L 127 253.887 129.223 255.443 C 131.151 256.794, 137.176 257, 174.768 257 L 218.091 257 220.545 254.545 L 223 252.091 223 205.768 C 223 165.461, 222.798 159.156, 221.443 157.223 L 219.887 155 175.098 155 C 132.978 155, 130.211 155.109, 128.655 156.829 M 230.313 155.786 C 229.659 156.201, 228.647 157.798, 228.063 159.335 C 226.603 163.175, 226.605 247.568, 228.065 251.756 C 229.918 257.071, 231.531 257.267, 268.717 256.704 C 309.797 256.083, 316.053 255.054, 334.327 245.912 C 359.142 233.498, 377.930 210.117, 385.656 182.033 C 388.616 171.274, 389.786 158.652, 388.019 156.523 C 386.907 155.183, 377.451 155.002, 309.128 155.015 C 266.432 155.024, 230.966 155.370, 230.313 155.786 M 328.672 174.405 C 325.277 178.045, 321.938 181.018, 321.250 181.012 C 320.537 181.005, 320 179.741, 320 178.071 C 320 174.512, 317.506 171.786, 314.625 172.197 C 312.653 172.478, 312.479 173.183, 312.209 181.982 L 311.919 191.463 302.871 200.232 C 297.894 205.054, 293.507 209, 293.121 209 C 292.735 209, 290.361 204.551, 287.845 199.112 C 285.329 193.674, 281.097 185.572, 278.442 181.108 C 274.579 174.615, 272.789 172.592, 269.491 170.996 C 264.279 168.473, 261.695 168.485, 256.375 171.060 C 252.997 172.696, 251.770 174.034, 250.427 177.551 C 248.311 183.094, 248.903 187.093, 253.047 195.250 C 255.991 201.042, 261.870 210.498, 264.705 214 C 269.958 220.489, 276.076 229.701, 277.008 232.524 C 278.737 237.763, 283.228 241, 288.766 241 C 293.041 241, 293.739 240.615, 298.290 235.750 C 300.991 232.863, 306.701 226.225, 310.979 221 C 320.507 209.362, 322.198 207.802, 328.418 204.909 C 331.122 203.651, 336.015 200, 339.290 196.796 C 344.696 191.506, 345.186 190.680, 344.614 187.822 C 344.173 185.613, 344.474 184.134, 345.624 182.863 C 346.948 181.400, 347.055 180.516, 346.178 178.276 C 345.581 176.749, 344.960 174.381, 344.797 173.013 C 344.559 171.023, 343.795 170.413, 340.966 169.956 C 339.022 169.642, 336.850 169.025, 336.138 168.585 C 335.262 168.044, 332.852 169.921, 328.672 174.405 M 329 176.500 C 325.457 180.075, 321.821 183, 320.921 183 C 319.810 183, 318.998 181.662, 318.392 178.831 C 316.923 171.963, 315 172.793, 315 180.295 C 315 183.874, 314.307 188.414, 313.447 190.473 C 311.721 194.604, 311.896 195.070, 317.739 201.928 L 320.660 205.355 325.326 204.049 C 328.578 203.138, 331.963 200.936, 336.496 196.783 C 340.073 193.505, 343 190.214, 343 189.470 C 343 187.454, 341.342 186.811, 339.827 188.241 C 333.514 194.197, 333.642 192.402, 340 185.806 C 347.724 177.792, 346.470 174.761, 338.478 182.127 C 332.436 187.696, 332.797 185.965, 339.058 179.345 C 343.831 174.298, 344.606 172, 341.534 172 C 340.793 172, 338.302 174.250, 336 177 C 333.698 179.750, 331.379 182, 330.847 182 C 330.316 182, 331.753 179.780, 334.041 177.067 C 337.676 172.756, 338.503 170, 336.162 170 C 335.766 170, 332.543 172.925, 329 176.500 M 256.420 172.885 C 252.435 175.316, 250.606 179.812, 251.256 185.579 C 251.880 191.114, 254.890 194.624, 260.252 196.068 C 263.527 196.950, 264.802 196.790, 268.404 195.047 C 273.462 192.598, 275.333 189.547, 275.333 183.750 C 275.333 178.429, 273.771 175.441, 269.686 172.950 C 265.657 170.493, 260.385 170.468, 256.420 172.885 M 258.016 179.707 C 254.091 184.697, 258.294 191.779, 264.463 190.569 C 268.233 189.829, 270 187.561, 270 183.464 C 270 177.016, 262.085 174.534, 258.016 179.707 M 151.368 179.033 C 141.177 182.167, 133.058 202.326, 134.157 221.767 C 134.676 230.951, 136.905 234.365, 142.668 234.799 C 146.379 235.078, 147.090 234.651, 153.650 228.207 C 161.239 220.753, 163.036 220.033, 174.110 220.011 C 186.490 219.987, 188.263 220.649, 195.979 228.184 C 202.734 234.780, 203.275 235.097, 207.287 234.806 C 211.093 234.530, 211.689 234.114, 213.461 230.500 C 218.941 219.325, 211.969 188.654, 202.268 181.255 C 197.442 177.575, 188.463 177.344, 182.693 180.752 C 177.935 183.561, 172.204 183.643, 167.667 180.966 C 163.634 178.587, 155.828 177.661, 151.368 179.033 M 260.843 179.391 C 256.196 181.708, 257.943 189, 263.146 189 C 267.112 189, 269.807 184.876, 268.021 181.539 C 266.461 178.624, 263.911 177.861, 260.843 179.391 M 150.500 181.871 C 143.057 186.494, 138.704 195.562, 136.926 210.150 C 134.995 225.990, 136.925 233, 143.216 233 C 145.478 233, 147.541 231.545, 152.533 226.428 C 158.767 220.039, 159.133 219.830, 165.722 218.882 C 174.072 217.680, 186.643 218.665, 190 220.783 C 191.375 221.651, 194.462 224.319, 196.860 226.712 C 204.607 234.442, 209.756 235.308, 212.115 229.277 C 213.895 224.725, 212.639 204.583, 210.138 197.566 C 204.407 181.493, 196.100 176.778, 183.595 182.499 C 176.266 185.852, 172.989 185.870, 166 182.596 C 159.485 179.544, 154.613 179.316, 150.500 181.871 M 277.042 187.500 C 276.436 189.150, 275.761 191.015, 275.542 191.644 C 275.323 192.274, 273.529 194.020, 271.555 195.526 C 268.623 197.762, 266.964 198.254, 262.483 198.213 C 259.468 198.186, 257 198.396, 257 198.679 C 257 200.225, 268.161 216, 269.255 216 C 269.970 216, 271.555 215.299, 272.777 214.443 C 274.617 213.155, 275 211.937, 275 207.378 C 275 200.713, 275.981 198.665, 279.962 197.016 C 283.629 195.497, 283.753 193.760, 280.567 188.500 L 278.144 184.500 277.042 187.500 M 154.553 190.183 C 154.313 190.907, 153.978 192.342, 153.809 193.371 C 153.623 194.496, 152.104 195.692, 150 196.371 C 147.347 197.227, 146.427 198.125, 146.199 200.086 C 145.856 203.036, 147.390 204.655, 151 205.154 C 152.724 205.393, 153.533 206.156, 153.607 207.614 C 153.767 210.776, 154.853 212, 157.500 212 C 160.147 212, 161.233 210.776, 161.393 207.614 C 161.469 206.106, 162.259 205.412, 164.146 205.194 C 165.601 205.025, 167.607 203.986, 168.604 202.885 C 170.943 200.301, 169.594 197.926, 164.904 196.371 C 162.315 195.513, 161.379 194.554, 160.995 192.371 C 160.602 190.137, 159.880 189.430, 157.740 189.183 C 156.113 188.996, 154.810 189.404, 154.553 190.183 M 320.714 189.619 C 320.321 190.012, 320 191.600, 320 193.148 C 320 195.319, 320.574 196.106, 322.513 196.593 C 325.797 197.417, 328.184 195.382, 327.801 192.086 C 327.560 190.020, 326.890 189.440, 324.464 189.203 C 322.794 189.039, 321.107 189.227, 320.714 189.619 M 321.986 191.517 C 320.888 192.840, 320.944 193.372, 322.329 194.757 C 324.276 196.705, 326.399 195.304, 325.844 192.439 C 325.376 190.027, 323.579 189.597, 321.986 191.517 M 155.667 191.667 C 155.300 192.033, 155 193.608, 155 195.167 C 155 197.625, 154.617 198, 152.107 198 C 148.979 198, 147.470 200.070, 149.278 201.878 C 149.895 202.495, 151.435 203, 152.700 203 C 154.662 203, 155 203.514, 155 206.500 C 155 209.265, 155.397 210, 156.889 210 C 158.249 210, 158.958 209.038, 159.422 206.563 C 159.947 203.765, 160.571 203.068, 162.783 202.813 C 164.719 202.590, 165.592 201.853, 165.820 200.250 C 166.091 198.336, 165.681 198, 163.070 198 C 160.533 198, 160 197.600, 160 195.700 C 160 192.428, 157.362 189.972, 155.667 191.667 M 189.473 194.044 C 188.689 195.312, 190.756 198, 192.515 198 C 193.981 198, 195.275 195.255, 194.444 193.910 C 193.676 192.667, 190.267 192.759, 189.473 194.044 M 280.981 198.686 C 277.413 201.128, 277.032 201.954, 277.015 207.295 C 277.003 211.041, 276.463 212.628, 274.545 214.545 C 273.195 215.895, 271.620 217, 271.045 217 C 269.333 217, 269.836 218.302, 272.956 221.953 L 275.907 225.406 282.704 219.014 C 286.442 215.498, 289.844 212.340, 290.264 211.997 C 291.176 211.251, 285.822 197.774, 284.430 197.310 C 283.898 197.133, 282.346 197.752, 280.981 198.686 M 308.518 197.971 C 308.188 198.504, 308.647 200.351, 309.538 202.073 C 313.225 209.202, 304.823 215.683, 298.833 210.330 C 296.886 208.590, 294.817 209.409, 291.090 213.393 L 288.681 215.969 292.248 217.459 C 296.257 219.134, 300 223.323, 300 226.135 C 300 228.697, 302.442 228.479, 304.311 225.750 C 305.158 224.512, 307.260 221.925, 308.981 220 C 310.702 218.075, 313.869 214.433, 316.018 211.906 L 319.926 207.311 315.713 202.213 C 311.551 197.177, 309.688 196.078, 308.518 197.971 M 202.250 198.731 C 201.563 198.970, 201 200.029, 201 201.083 C 201 202.461, 201.703 203, 203.500 203 C 205.286 203, 206 202.460, 206 201.107 C 206 199.089, 204.304 198.014, 202.250 198.731 M 302.196 203.298 C 298.456 207.157, 298.233 208.519, 301.093 210.050 C 306.287 212.830, 310.822 207.430, 307.523 202.394 C 306.660 201.077, 305.828 200, 305.673 200 C 305.519 200, 303.954 201.484, 302.196 203.298 M 189.380 207.452 C 188.611 209.455, 189.752 211, 192 211 C 194.301 211, 195.209 209.708, 194.396 207.590 C 193.633 205.600, 190.128 205.504, 189.380 207.452 M 284.808 219.855 C 280.567 221.982, 278.798 225.464, 279.399 230.498 C 280.601 240.563, 294.610 242.294, 297.924 232.787 C 300.971 224.046, 292.704 215.895, 284.808 219.855 M 284.950 226.093 C 282.483 230.703, 286.681 235.312, 291.162 232.913 C 293.262 231.789, 293.654 227.054, 291.800 225.200 C 289.903 223.303, 286.184 223.788, 284.950 226.093 M 285.696 227.349 C 284.886 229.462, 287.310 232.279, 289.566 231.845 C 290.860 231.596, 291.500 230.649, 291.500 228.986 C 291.500 227.047, 290.923 226.433, 288.878 226.196 C 287.280 226.011, 286.037 226.461, 285.696 227.349 M 141.061 261.748 C 134.769 261.925, 129.032 262.559, 128.311 263.157 C 127.263 264.026, 127 273.828, 127 311.967 C 127 356.930, 127.106 359.786, 128.829 361.345 C 130.473 362.833, 135.161 363, 175.272 363 L 219.887 363 221.443 360.777 C 222.798 358.844, 223 352.539, 223 312.232 L 223 265.909 220.545 263.455 L 218.091 261 185.295 261.214 C 167.258 261.331, 147.352 261.572, 141.061 261.748 M 164 274.445 C 164 276.652, 163.538 276.920, 159.259 277.195 C 155.575 277.432, 154.439 277.914, 154.165 279.356 C 153.971 280.377, 154.249 281.649, 154.782 282.182 C 155.408 282.808, 155.577 282.239, 155.259 280.576 C 154.788 278.109, 154.962 278, 159.383 278 C 163.608 278, 164 278.207, 164 280.434 C 164 282.321, 163.383 282.961, 161.250 283.284 L 158.500 283.700 161.250 283.850 C 163.254 283.959, 164 284.527, 164 285.941 C 164 287.009, 164.338 288.092, 164.750 288.349 C 165.162 288.606, 165.353 285.257, 165.174 280.908 L 164.848 273 174.924 273 L 185 273 185 280.015 C 185 286.851, 184.917 287.081, 181.750 289.035 C 176.925 292.014, 174.448 292.370, 170.893 290.597 C 166.945 288.627, 166.423 288.600, 167.954 290.445 C 168.614 291.240, 169.006 292.927, 168.827 294.195 C 168.512 296.418, 168.116 296.510, 157.750 296.784 L 147 297.068 147 321.834 C 147 347.806, 147.214 349.106, 151.450 348.900 C 153.167 348.817, 153.094 348.688, 151 348.106 L 148.500 347.411 148.229 328.242 L 147.957 309.073 157.729 308.746 L 167.500 308.419 157.750 308.209 L 148 308 148 303 L 148 298 158.500 298 C 167.506 298, 169 298.230, 169 299.618 C 169 302.523, 176.276 308.812, 180.054 309.172 C 182.724 309.426, 183.500 309.950, 183.500 311.500 C 183.500 313.024, 182.666 313.619, 180 314.001 C 176.272 314.534, 161.960 321.523, 162.059 322.763 C 162.174 324.206, 175.474 329.926, 176.449 328.951 C 177.050 328.350, 176.763 328, 175.667 328 C 173.899 328, 164 323.340, 164 322.508 C 164 321.796, 173.283 317.671, 175.292 317.490 C 176.278 317.401, 177.317 317.704, 177.601 318.164 C 177.886 318.624, 178.654 318.986, 179.309 318.970 C 179.964 318.953, 179.713 318.481, 178.750 317.920 C 176.112 316.383, 176.646 315, 179.878 315 C 183.338 315, 185.399 312.832, 184.533 310.103 C 184.060 308.614, 182.858 308.033, 179.778 307.805 C 174.670 307.427, 173.893 305.624, 177.936 303.533 C 179.758 302.591, 181 301.162, 181 300.008 C 181 298.228, 181.887 298.041, 191.750 297.746 L 202.500 297.425 191.750 297.212 L 181 297 181 294.180 C 181 292.419, 181.938 290.545, 183.500 289.187 C 184.875 287.991, 186 286.367, 186 285.576 C 186 284.786, 187.012 283.944, 188.250 283.706 L 190.500 283.272 188.250 283.136 C 186.553 283.033, 186 282.386, 186 280.500 C 186 278.247, 186.398 278, 190.032 278 C 193.279 278, 194.241 278.438, 194.969 280.250 C 195.524 281.630, 195.898 281.901, 195.937 280.950 C 196.040 278.415, 193.842 277, 189.800 277 C 186.413 277, 186 276.728, 186 274.500 L 186 272 175 272 L 164 272 164 274.445 M 170 297.032 C 170 301.018, 170.355 301.841, 172.500 302.818 C 174.370 303.670, 175.630 303.670, 177.500 302.818 C 179.645 301.841, 180 301.018, 180 297.032 L 180 292.385 175 292.385 L 170 292.385 170 297.032 M 194.500 307.954 L 187.500 308.555 194.752 309.027 C 200.140 309.378, 202.004 309.179, 202.002 308.250 C 202.001 307.563, 201.887 307.079, 201.750 307.177 C 201.613 307.274, 198.350 307.624, 194.500 307.954 M 181.500 320 C 181.840 320.550, 182.751 321, 183.524 321 C 185.907 321, 187 324.548, 187 332.282 L 187 339.696 182.952 341.522 C 180.725 342.526, 178.655 343.750, 178.351 344.242 C 178.047 344.734, 180.093 343.973, 182.899 342.551 L 188 339.966 188 331.199 C 188 322.582, 187.950 322.402, 185.096 320.716 C 181.811 318.775, 180.593 318.533, 181.500 320 M 162.233 339 C 162.834 341.338, 174.944 347.456, 176.295 346.105 C 177.334 345.066, 176.187 344.506, 173.772 344.874 C 172.727 345.034, 163.656 339.905, 162.674 338.599 C 162.141 337.890, 161.985 338.032, 162.233 339 M 201.136 344.677 C 201.046 346.785, 200.412 348.007, 199.250 348.311 C 197.610 348.739, 197.612 348.775, 199.281 348.884 C 201.385 349.021, 202.331 347.054, 201.715 343.823 C 201.370 342.013, 201.242 342.202, 201.136 344.677 M 126 407.500 L 126 436 132 436 L 138 436 138 426 L 138 416 143.322 416 C 149.233 416, 156.354 413.871, 159.671 411.112 C 167.984 404.199, 168.200 390.554, 160.105 383.742 C 155.611 379.960, 151.135 379.012, 137.750 379.006 L 126 379 126 407.500 M 171.452 380.265 C 171.185 380.961, 171.086 393.673, 171.233 408.515 L 171.500 435.500 190 435.500 L 208.500 435.500 208.804 430.780 L 209.107 426.061 196.304 425.780 L 183.500 425.500 183.232 402.250 L 182.963 379 177.450 379 C 173.928 379, 171.762 379.457, 171.452 380.265 M 228.732 380.706 C 228.443 381.693, 225.952 388.800, 223.196 396.500 C 220.441 404.200, 216.344 415.660, 214.093 421.966 C 211.842 428.273, 210 434.031, 210 434.762 C 210 435.766, 211.652 436.019, 216.740 435.796 C 222.589 435.539, 223.521 435.236, 223.791 433.500 C 223.963 432.400, 224.489 430.600, 224.961 429.500 C 225.433 428.400, 226.077 426.694, 226.394 425.709 C 226.895 424.147, 228.019 423.956, 235.202 424.209 L 243.435 424.500 245.086 430 L 246.737 435.500 253.369 435.796 C 257.396 435.975, 260 435.692, 260 435.073 C 260 434.024, 257.285 425.881, 247.140 396.500 L 241.271 379.500 235.263 379.206 C 230.196 378.957, 229.174 379.192, 228.732 380.706 M 266.234 407.250 L 266.500 435.500 272.500 435.500 L 278.500 435.500 278.786 425.189 L 279.071 414.879 282.286 415.189 C 285.232 415.474, 285.887 416.249, 290.149 424.500 C 292.706 429.450, 295.311 434.063, 295.939 434.750 C 297.202 436.135, 307.578 436.492, 308.390 435.178 C 308.669 434.726, 308.307 433.264, 307.586 431.928 C 306.864 430.593, 304.257 425.729, 301.793 421.120 L 297.312 412.741 301.499 408.554 C 310.643 399.410, 307.398 384.709, 295.328 380.596 C 292.035 379.474, 286.980 379, 278.306 379 L 265.969 379 266.234 407.250 M 308.686 379.648 C 308.309 380.025, 308 382.283, 308 384.667 L 308 389 315.982 389 L 323.963 389 324.232 412.250 L 324.500 435.500 330.231 435.799 L 335.963 436.099 336.231 412.799 L 336.500 389.500 344.803 389.209 L 353.106 388.917 352.803 384.209 L 352.500 379.500 330.936 379.231 C 319.075 379.083, 309.063 379.271, 308.686 379.648 M 358 407.500 L 358 436 375.375 436 L 392.750 436 393.375 432.875 C 394.810 425.698, 395.331 426, 381.500 426 L 369 426 369 419.035 L 369 412.070 379.250 411.785 L 389.500 411.500 389.500 406.500 L 389.500 401.500 379.250 401.215 L 369 400.930 369 394.965 L 369 389 381 389 L 393 389 393 384 L 393 379 375.500 379 L 358 379 358 407.500 M 98.846 393.823 C 92.437 396.945, 84.449 400.776, 81.096 402.335 C 75.421 404.974, 75 405.400, 75 408.503 L 75 411.836 93.002 418.919 C 102.903 422.814, 111.565 426.113, 112.252 426.251 C 113.777 426.555, 114.013 418.149, 112.507 417.155 C 111.961 416.795, 106.561 414.621, 100.507 412.325 L 89.500 408.149 96.500 405 C 100.350 403.267, 105.638 400.928, 108.250 399.802 C 112.987 397.759, 113 397.741, 113 392.877 C 113 389.603, 112.589 388.024, 111.750 388.073 C 111.063 388.113, 105.256 390.701, 98.846 393.823 M 405 393.192 L 405 398.503 416.451 403.500 C 422.749 406.249, 427.587 408.768, 427.201 409.097 C 426.815 409.427, 421.663 411.615, 415.750 413.958 L 405 418.220 405 422.610 C 405 425.025, 405.337 427.006, 405.750 427.014 C 406.163 427.022, 414.712 423.802, 424.750 419.858 L 443 412.688 443 408.844 C 443 406.730, 442.522 405, 441.937 405 C 441.353 405, 434.940 402.145, 427.687 398.655 C 420.434 395.165, 412.700 391.490, 410.500 390.487 C 408.300 389.484, 406.163 388.488, 405.750 388.273 C 405.337 388.058, 405 390.272, 405 393.192 M 140.750 389.720 C 138.034 390.128, 138 390.224, 138 397.566 L 138 405 143.750 404.968 C 151.318 404.926, 153.500 403.285, 153.500 397.636 C 153.500 395.135, 152.866 392.724, 151.975 391.832 C 150.255 390.113, 144.874 389.100, 140.750 389.720 M 280.750 389.668 C 279.283 390.069, 279 391.349, 279 397.573 L 279 405 283.566 405 C 288.115 405, 291.839 403.691, 293.235 401.600 C 294.581 399.584, 294.022 394.248, 292.250 392.189 C 290.491 390.145, 284.115 388.748, 280.750 389.668 M 232.559 404.750 C 231.622 407.913, 230.625 411.063, 230.344 411.750 C 229.974 412.655, 231.266 413, 235.024 413 C 239.282 413, 240.108 412.724, 239.624 411.463 C 239.300 410.618, 238.320 407.468, 237.446 404.463 C 236.573 401.458, 235.499 399, 235.061 399 C 234.622 399, 233.497 401.587, 232.559 404.750" stroke="none" fill="#fffcfc" fill-rule="evenodd"/><path d="" stroke="none" fill="#fcfcfc" fill-rule="evenodd"/></svg>