<svg xmlns="http://www.w3.org/2000/svg" width="1080" height="146" viewBox="0 0 1080 146" version="1.1"><path d="" stroke="none" fill="#080404" fill-rule="evenodd"/><path d="M 924.586 71.957 C 916.934 100.532, 910.740 124.270, 910.823 124.706 C 910.906 125.143, 913.145 125.633, 915.800 125.796 L 920.625 126.092 934.482 74.296 C 942.103 45.808, 948.535 21.938, 948.776 21.250 C 949.091 20.351, 947.710 20, 943.857 20.001 L 938.500 20.001 924.586 71.957 M 452.624 24.572 C 435.048 30.203, 425.057 45.992, 425.015 68.201 C 424.986 83.332, 429.436 95.393, 438.007 103.410 C 443.976 108.993, 449.220 111.509, 457.756 112.883 C 474.426 115.568, 490.184 107.959, 496.863 94 C 499.062 89.404, 499.551 86.815, 499.838 78.250 L 500.182 68 483.091 68 L 466 68 466 73 L 466 78 477.545 78 L 489.091 78 488.445 81.750 C 486.843 91.051, 480.821 98.538, 473.078 100.859 C 470.982 101.486, 466.493 102, 463.101 102 C 444.960 102, 434.048 84.946, 437.035 61.261 C 438.482 49.790, 443.810 41.325, 452.500 36.692 C 458.114 33.699, 468.896 33.713, 474.595 36.721 C 479.331 39.221, 484.773 45.049, 486.204 49.156 C 487.153 51.878, 487.468 52, 493.528 52 L 499.860 52 499.064 49.222 C 496.167 39.121, 487.505 29.466, 478.188 25.952 C 470.691 23.125, 459.094 22.498, 452.624 24.572 M 542.929 24.303 C 528.872 28.292, 518.488 40.057, 515.130 55.799 C 513.688 62.560, 513.681 74.385, 515.115 81.201 C 520.707 107.789, 546.712 120.779, 570.708 108.971 C 580.789 104.010, 587.792 94.189, 590.560 81.131 C 595.612 57.297, 586.414 34.573, 568.371 26.312 C 561.728 23.271, 549.867 22.334, 542.929 24.303 M 145.667 24.667 C 145.300 25.033, 145 27.508, 145 30.167 L 145 35 159 35 L 173 35 173 73.500 L 173 112 179 112 L 185 112 185 73.500 L 185 35 198.500 35 L 212 35 212 29.500 L 212 24 179.167 24 C 161.108 24, 146.033 24.300, 145.667 24.667 M 228 68 L 228 112 234 112 L 240 112 240 92.500 L 240 73 262.500 73 L 285 73 285 92.500 L 285 112 291 112 L 297 112 297 68 L 297 24 291 24 L 285 24 285 43 L 285 62 262.500 62 L 240 62 240 43 L 240 24 234 24 L 228 24 228 68 M 317 68 L 317 112 323 112 L 329 112 329 68 L 329 24 323 24 L 317 24 317 68 M 373.535 24.944 C 372.843 26.063, 342 110.777, 342 111.558 C 342 111.854, 344.808 111.961, 348.239 111.798 L 354.479 111.500 358.489 99.735 L 362.500 87.970 380.402 88.235 L 398.303 88.500 402.402 100.245 L 406.500 111.990 412.857 111.995 C 418.503 111.999, 419.138 111.804, 418.537 110.250 C 417.689 108.057, 389.126 30.495, 387.787 26.750 C 386.855 24.142, 386.476 24, 380.461 24 C 376.972 24, 373.856 24.425, 373.535 24.944 M 643 67.881 L 643 112 661.395 112 C 681.792 112, 688.615 110.677, 696.489 105.195 C 708.463 96.860, 715.446 76.317, 712.193 59 C 710.145 48.099, 707.089 41.909, 700.588 35.492 C 691.208 26.234, 686.460 24.840, 662.250 24.240 L 643 23.763 643 67.881 M 730 68 L 730 112 757.500 112 L 785 112 785 107 L 785 102 763.500 102 L 742 102 742 87.500 L 742 73 761.500 73 L 781 73 781 68 L 781 63 761.500 63 L 742 63 742 49 L 742 35 763 35 L 784 35 784 29.500 L 784 24 757 24 L 730 24 730 68 M 795.060 25.250 C 795.093 25.938, 802.197 45.625, 810.846 69 L 826.573 111.500 833.536 111.766 L 840.500 112.032 856 69.374 C 864.525 45.912, 871.650 26.083, 871.833 25.308 C 872.098 24.189, 870.884 23.962, 865.906 24.200 L 859.647 24.500 853.320 42.500 C 849.840 52.400, 843.969 69.661, 840.273 80.858 L 833.554 101.215 828.913 86.858 C 825.120 75.119, 819.162 58.160, 807.799 26.750 C 806.867 24.173, 806.433 24, 800.902 24 C 796.815 24, 795.018 24.384, 795.060 25.250 M 546.500 34.935 C 535.439 37.628, 527.772 47.492, 526.035 61.261 C 523.773 79.199, 529.765 94.319, 541.360 99.932 C 544.512 101.458, 547.579 101.998, 553.066 101.991 C 559.510 101.982, 561.206 101.576, 565.805 98.939 C 575.936 93.129, 580.543 82.134, 579.786 65.571 C 579.407 57.283, 578.843 54.486, 576.603 49.776 C 571.010 38.020, 558.719 31.960, 546.500 34.935 M 655 68.537 L 655 102.275 666.750 101.711 C 673.212 101.401, 680.176 100.646, 682.225 100.034 C 688.211 98.244, 694.176 93.008, 697.391 86.720 C 699.858 81.897, 700.375 79.524, 700.776 71.198 C 701.586 54.388, 696.748 43.479, 686.183 38.291 C 681.039 35.765, 679.291 35.467, 667.750 35.150 L 655 34.799 655 68.537 M 380.040 36 C 379.999 36.275, 376.866 45.837, 373.078 57.250 L 366.192 78 380.096 78 C 387.743 78, 394 77.731, 394 77.402 C 394 77.074, 392.163 71.613, 389.918 65.268 C 387.673 58.922, 384.549 49.629, 382.976 44.615 C 381.403 39.602, 380.082 35.725, 380.040 36 M 98.250 60.079 L 71 74.112 71 78.053 L 71 81.993 99.048 96.024 L 127.097 110.055 126.798 103.813 L 126.500 97.571 106.278 88.035 C 95.155 82.791, 86.043 78.239, 86.028 77.919 C 86.012 77.599, 95.112 73.047, 106.250 67.803 L 126.500 58.269 126.798 52.134 C 126.961 48.760, 126.736 46.010, 126.298 46.023 C 125.859 46.036, 113.238 52.361, 98.250 60.079 M 964.613 46.720 C 963.445 47.888, 963.996 56.752, 965.305 57.838 C 966.023 58.434, 975.556 63.201, 986.490 68.433 L 1006.370 77.944 994.435 83.586 C 987.871 86.690, 978.337 91.176, 973.250 93.556 L 964 97.884 964 103.275 C 964 106.241, 964.281 108.947, 964.624 109.291 C 964.967 109.634, 977.781 103.521, 993.099 95.707 L 1020.951 81.500 1020.975 77.753 L 1021 74.007 993.113 60.057 C 977.776 52.384, 964.951 46.383, 964.613 46.720" stroke="none" fill="#040404" fill-rule="evenodd"/></svg>